<svg xmlns="http://www.w3.org/2000/svg" width="1600" height="360" viewBox="0 0 1600 360">
  <rect width="100%" height="100%" fill="transparent"/>
  <g transform="translate(24,18)">
    <path d="M38 154 C72 58, 178 20, 262 36 C328 48, 386 102, 398 154" fill="none" stroke="#DDAE65" stroke-width="10" stroke-linecap="round"/>
    <path d="M18 205 C115 146, 310 146, 414 205" fill="none" stroke="#DDAE65" stroke-width="11" stroke-linecap="round"/>
    <rect x="118" y="112" width="28" height="66" rx="6" fill="#53B94A"/>
    <rect x="160" y="83" width="34" height="95" rx="6" fill="#60C951"/>
    <rect x="210" y="42" width="40" height="136" rx="6" fill="#74D963"/>
    <rect x="266" y="0" width="46" height="178" rx="6" fill="#8AE66E"/>
  </g>
  <g transform="translate(480,55)">
    <text x="0" y="98" font-family="Montserrat, Poppins, Arial, sans-serif" font-size="96" font-weight="800" letter-spacing="4" fill="#13161B">HORIZONTE</text>
    <line x1="0" y1="160" x2="82" y2="160" stroke="#B88938" stroke-width="6" stroke-linecap="round"/>
    <text x="110" y="174" font-family="Montserrat, Poppins, Arial, sans-serif" font-size="42" font-weight="600" letter-spacing="10" fill="#B88938">FINANCEIRO</text>
    <line x1="558" y1="160" x2="640" y2="160" stroke="#B88938" stroke-width="6" stroke-linecap="round"/>
  </g>
</svg>